<?xml version="1.0" encoding="utf-8"?>
<!-- Generator: Adobe Illustrator 28.2.0, SVG Export Plug-In . SVG Version: 6.00 Build 0)  -->
<svg version="1.1" id="Capa_1" xmlns="http://www.w3.org/2000/svg" xmlns:xlink="http://www.w3.org/1999/xlink" x="0px" y="0px"
	 viewBox="0 0 157 120" style="enable-background:new 0 0 157 120;" xml:space="preserve">
<style type="text/css">
	.st0{fill:#FFFFFF;}
</style>
<path class="st0" d="M14.9,79.8c-1.4,3.3-0.3,3.7-5.5,3.7H7.2v-7.8h1.5c2.4,0,3.1,0.4,3.2,2.5h1.2v-6.4h-1.2c-0.2,2-0.8,2.4-3.2,2.4
	H7.2v-7.1h2.2c3.7,0,2.9,0.5,3.6,3h1.5l-0.2-4.4c-3.3,0.1-5.1,0.2-7.9,0.2c-2.1,0-4.3-0.1-6.4-0.2V67c2.2,0,2.5,0.3,2.5,1.9v13.1
	c0,1.6-0.2,1.9-2.5,1.9v1.3h0c1.2,0,2.3-0.2,4.5-0.2h10.9l0.8-4.8L14.9,79.8z"/>
<path class="st0" d="M32.2,80.2L30.8,80c-1,2.8-1.5,3.5-4.5,3.5h-2.4V68.8c0-1.6,0.2-1.9,2.6-1.9v-1.3c-1.2,0.1-3,0.2-5,0.2
	c-2,0-3.7-0.1-4.9-0.2V67c2.3,0,2.5,0.3,2.5,1.9v13.1c0,1.6-0.2,1.9-2.5,1.9v1.3h0.1c1.2,0,2.3-0.2,4.5-0.2h10.3L32.2,80.2z"/>
<path class="st0" d="M42.4,84.9h4.4c5.3,0,11.4-2.3,11.4-9.7c0-7.2-6.2-9.4-11.7-9.4h-4.1c-2.2,0-3.3-0.2-4.5-0.2h0V67
	c2.2,0,2.5,0.3,2.5,1.9v13.1c0,1.6-0.2,1.9-2.5,1.9v1.3h0C39.2,85.1,40.2,84.9,42.4,84.9z M45.1,67.3h1.1c4.1,0,5.8,2.7,5.8,8.1
	c0,5.3-1.4,8.1-5.6,8.1h-1.3L45.1,67.3L45.1,67.3z"/>
<path class="st0" d="M69.1,85.4c5.8,0,9.5-4,9.5-10c0-6-3.8-10-9.5-10c-5.8,0-9.5,4-9.5,10C59.5,81.4,63.3,85.4,69.1,85.4z
	 M69.1,66.8c2.6,0,4.3,1.6,4.3,8.6c0,7-1.6,8.6-4.3,8.6s-4.3-1.6-4.3-8.6C64.8,68.4,66.4,66.8,69.1,66.8z"/>
<path class="st0" d="M101.3,85.1v-1.3c-1.1,0-1.6-0.2-1.6-1c0-0.3,0.5-1.5,1.2-3.7h5.7c0.7,2.1,1.2,3.3,1.2,3.7
	c0,0.6-0.7,0.9-2.2,0.9v1.3c0.6-0.1,3.1-0.2,4.6-0.2c1.9,0,3.4,0.1,4.2,0.2v-1.3c-1.3-0.1-1.6-0.6-2.1-2c-1.5-4.4-5-14.9-5.2-16.1
	c-0.9,0.1-1.7,0.2-2.6,0.2c-0.7,0-1.4-0.1-2.1-0.2l0.6,2.2l-4.6,13.7c-0.5,1.5-0.9,2.2-2.1,2.3v1.3c0.5-0.1,1.4-0.2,2.5-0.2
	C99.9,84.9,100.8,85,101.3,85.1z M103.1,72.4c0.3-1,0.5-1.6,0.6-2.2h0l2.3,7.5h-4.7L103.1,72.4z"/>
<path class="st0" d="M124.3,65.8h-4.1c-2.2,0-3.3-0.2-4.5-0.2h-0.1V67c2.2,0,2.5,0.3,2.5,1.9v13.1c0,1.6-0.2,1.9-2.5,1.9v1.3h0.1
	c1.2,0,2.3-0.2,4.5-0.2h4.4c5.3,0,11.4-2.3,11.4-9.7C136,68,129.8,65.8,124.3,65.8z M124.2,83.5h-1.3V67.3h1.1
	c4.1,0,5.8,2.7,5.8,8.1C129.8,80.7,128.4,83.5,124.2,83.5z"/>
<path class="st0" d="M146.8,65.4c-5.8,0-9.5,4-9.5,10c0,6,3.8,10,9.5,10c5.8,0,9.5-4,9.5-10C156.4,69.4,152.6,65.4,146.8,65.4z
	 M146.8,84c-2.6,0-4.3-1.6-4.3-8.6c0-7,1.6-8.6,4.3-8.6c2.6,0,4.3,1.6,4.3,8.6C151.1,82.4,149.5,84,146.8,84z"/>
<path class="st0" d="M109.6,87.6c-4.1-0.3-8.7,0.3-13.2,1.3c-0.9-2.7-1.3-5.5-2.3-8.4c-1.1-3.1-2.7-4.8-2.7-4.8
	c2.8-0.7,4.2-2,4.2-4.6c0-4.1-2.6-5.3-7.9-5.3h-4.6c-2.2,0-3.3-0.2-4.5-0.2h0V67c2.2,0,2.5,0.3,2.5,1.9v13.1c0,1.6-0.2,1.9-2.5,1.9
	v1.3h0c1.2,0,2.3-0.2,4.5-0.2c1.8,0,3.5,0.1,5.2,0.2v-1.3c-2.3,0-2.5-0.3-2.5-1.9v-5.5c0.4,0,0.8,0,1.1-0.1c0.2,0.4,0.4,0.7,0.6,1.1
	c1,2.2,3.4,7.5,4.9,10.9c0.2,0.5,0.4,0.9,0.7,1.4c-2.8,0.7-5.6,1.5-8.3,2.3c-1.5-2-3.9-3.6-6.3-4.1c-6.1-1.4-12,0.5-12.4,3.5
	c-0.4,3,2.3,2,2.6,1c0.4-0.9-0.4-0.6-0.3-1.5c0.2-2.2,4.8-3.1,9.5-2.2c1.9,0.4,4.2,1.8,5.7,3.6c-1.3,0.4-2.6,0.8-3.8,1.2
	c-3.8,1.1-9.2,3.1-15,5.1c-1.9-1.1-3.8-2.2-5.7-3.2c-7.5-3.8-12.8-5.2-18.3-5.7c-3.6-0.4-12.9,1.6-13.4,7.1c-0.5,5.5,4.9,8.4,13,8.7
	c6.7,0.2,16.3-1.9,24-3.9c9.4,3.9,15.7,2.8,18.1,1.3c3.9-2.4,4.6-5.5,3.6-8.3c2.6-0.9,5.3-1.8,8.1-2.6c1.6,2.6,3.7,4.7,7,6.7
	c4.8,2.8,17.9,3.6,20.8-1.7C124.8,91.8,118.9,88.3,109.6,87.6z M86,75h-0.5v-7.7h1.2c2.2,0,3.1,1.2,3.1,4.2C89.8,74.1,88.5,75,86,75
	z M43.5,104.2c-10.6,1.1-15.1-3.5-15.3-7c-0.1-3.5,6.6-6.3,12.3-6c5.7,0.2,14,5.4,18,7.7c0.7,0.4,1.4,0.8,2.1,1.1
	C54.6,102,48.4,103.7,43.5,104.2z M81.5,101.3c-4.6,2.6-8.9,1.4-13.3-0.7c5.1-1.5,8.6-2.7,8.6-2.7c2.3-0.7,5-1.8,8-2.8
	C85.4,97.2,84.7,99.5,81.5,101.3z M118.3,98.5c-6.4,3-15.9-0.5-19.2-4.6c-0.7-0.9-1.3-1.8-1.7-2.7c3.2-0.7,6.3-1.3,9.3-1.3
	C121,89.9,124.7,95.5,118.3,98.5z"/>
<path class="st0" d="M61.1,24.8c1.5-1.7,2.5-3.1,0.8-4.6c-2.1-1.8-6.4,0-6.4,0s0.9-1.9,6.2-2.4c3.9-0.4,8.2,0.7,8.2,0.7
	s2.1-1.8,8.2-2.7c5.6-0.9,14.8-7.3,17.8-9.6C91.1,2.3,84.9,0,78.2,0C62.8,0,50.3,12.5,50.3,27.9c0,7.1,2.7,13.6,7,18.5
	c-1.1-2.6-1.1-5.3-1.1-5.3C53.6,36.3,60.3,25.7,61.1,24.8z"/>
<path class="st0" d="M96.7,6.9c-0.1,0.1-0.1,0.2-0.2,0.2c-1.3,1.1-18,13.5-18,13.5l5-2.9c0,0-7.6,8.7-10.4,11.4
	c-2.8,2.8-4.7,6-7.2,9.6c-2.5,3.5-2.2,6.7-1.7,7.4c0.5,0.7,2.4,0,3.3-0.1c0.9-0.1-0.8,1.3-0.8,1.3s1.4,0.5,3.8,0.1
	c2.4-0.4,2.1-2,2.9-5.1c0.8-3.1,5.3-5.3,4.2-4.6c-1.1,0.7-2.6,5.4-1.7,8.8c0.9,3.4,7,5.8,6.4,5.9c-2.7,0.7-5.9-1.2-7.1-2
	c-1.2-0.8-1.8-0.7-3,0c-1.2,0.7-3,0.7-3.8,1.3c-0.8,0.7,2.9,1.6,2.9,1.6S69,54,65.1,52.6c3.9,2.1,8.4,3.3,13.2,3.3
	c15.4,0,27.9-12.5,27.9-27.9C106.2,19.6,102.5,12.1,96.7,6.9z"/>
<path class="st0" d="M74.2,20.5c0-0.6,0.5-1,1-1c0.6,0,1,0.5,1,1c0,0.6-0.5,1-1,1C74.6,21.5,74.2,21,74.2,20.5z"/>
<path class="st0" d="M34,120c-1.8,0-3.1-1.2-3.1-2.9c0-1.8,1.4-3.1,3.3-3.1c0.7,0,1,0,1.7,0.3l-0.2,0.7c-0.6-0.2-0.9-0.3-1.4-0.3
	c-1.5,0-2.5,0.9-2.5,2.3c0,1.3,0.9,2.3,2.3,2.3c0.4,0,0.6,0,1-0.2v-2h0.9v2.5C35.1,119.9,34.7,120,34,120z"/>
<path class="st0" d="M40.4,120c-1.6,0-2.7-1.2-2.7-2.9c0-1.8,1.2-3.1,2.9-3.1c1.6,0,2.7,1.2,2.7,2.9C43.3,118.7,42,120,40.4,120z
	 M42.3,116.9c0-1.3-0.8-2.1-1.8-2.1s-1.8,0.9-1.8,2.2c0,1.3,0.8,2.3,1.8,2.3c1.1,0,1.8-0.9,1.8-2.2V116.9z"/>
<path class="st0" d="M45.3,119.9v-5.8h0.9v5h2.5v0.7L45.3,119.9L45.3,119.9z"/>
<path class="st0" d="M51.2,114.8v1.7h2.3v0.7h-2.3v2.7h-0.9v-5.8h3.3v0.7H51.2z"/>
<path class="st0" d="M62.9,120L62.9,120c-0.8-0.5-0.9-0.5-1.2-0.7c-0.6,0.5-1.2,0.7-1.9,0.7c-1.1,0-1.8-0.7-1.8-1.6
	c0-0.5,0.2-0.9,0.6-1.3c0.2-0.2,0.3-0.3,0.7-0.5c-0.2-0.4-0.4-0.8-0.4-1.2c0-0.8,0.6-1.3,1.5-1.3c0.7,0,1.3,0.5,1.3,1.1
	c0,0.6-0.4,1.1-1.3,1.6c0.3,0.4,0.9,1.1,1.4,1.4c0.2-0.3,0.3-0.4,0.4-0.9h0.7c-0.1,0.4-0.1,0.5-0.3,0.8c-0.1,0.2-0.2,0.3-0.3,0.5
	c0,0,0.1,0,0.1,0c0.1,0.1,0.2,0.2,0.4,0.3c0.2,0.2,0.4,0.3,0.5,0.3l0.2,0.1l0,0L62.9,120z M61,118.7l-0.2-0.2c-0.4-0.4-1-1-1.2-1.3
	c-0.5,0.3-0.8,0.7-0.8,1.1c0,0.6,0.5,1,1.1,1C60.4,119.2,60.8,119,61,118.7L61,118.7z M60.3,114.7c-0.4,0-0.6,0.3-0.6,0.7
	c0,0.3,0.1,0.5,0.2,0.8c0.6-0.3,0.9-0.6,0.9-1C60.8,114.9,60.6,114.7,60.3,114.7z"/>
<path class="st0" d="M69.7,119.9h-1.8v-5.8h1.6c0.7,0,1.1,0.1,1.5,0.3c0.4,0.2,0.6,0.6,0.6,1.1c0,0.4-0.1,0.7-0.4,0.9
	c-0.2,0.2-0.3,0.2-0.7,0.4c0.8,0.1,1.3,0.7,1.3,1.4C72,119.2,71.1,119.9,69.7,119.9z M69.6,114.8h-0.7v1.7h0.6c0.4,0,0.6,0,0.8-0.2
	c0.3-0.2,0.5-0.4,0.5-0.8C70.8,115,70.4,114.8,69.6,114.8z M70.5,117.3c-0.2-0.1-0.5-0.2-1-0.2h-0.7v2h0.7c0.4,0,0.7-0.1,1-0.2
	c0.3-0.2,0.5-0.5,0.5-0.9C71,117.8,70.8,117.5,70.5,117.3z"/>
<path class="st0" d="M73.9,119.9l0-5.8h3.4v0.7h-2.5v1.7h2.3v0.7h-2.3v1.9h2.6v0.7L73.9,119.9L73.9,119.9z"/>
<path class="st0" d="M83.5,119.9l-0.8-1.9h-2.3l-0.8,1.9h-0.9l2.4-5.8h1l2.4,5.8H83.5z M81.6,115l-0.9,2.3h1.8L81.6,115z"/>
<path class="st0" d="M90.7,119.6c-0.5,0.3-1.1,0.4-1.8,0.4c-1.8,0-3-1.2-3-2.9c0-1.8,1.4-3.1,3.3-3.1c0.6,0,1.1,0.1,1.7,0.3
	l-0.2,0.7c-0.1,0-0.2-0.1-0.3-0.1c-0.4-0.1-0.7-0.2-1.1-0.2c-1.4,0-2.4,0.9-2.4,2.3c0,1.3,0.9,2.2,2.2,2.2c0.3,0,0.5,0,0.8-0.1
	c0.3-0.1,0.5-0.1,0.8-0.3l0.3,0.6C90.8,119.5,90.7,119.5,90.7,119.6z"/>
<path class="st0" d="M96.4,119.9v-2.7h-2.9v2.7h-0.9v-5.8h0.9v2.4h2.9v-2.4h0.9v5.8H96.4z"/>
<path class="st0" d="M107,119.6c-0.5,0.3-1.1,0.4-1.8,0.4c-1.8,0-3-1.2-3-2.9c0-1.8,1.4-3.1,3.3-3.1c0.6,0,1.1,0.1,1.7,0.3l-0.2,0.7
	c-0.1,0-0.2-0.1-0.3-0.1c-0.4-0.1-0.7-0.2-1.1-0.2c-1.4,0-2.4,0.9-2.4,2.3c0,1.3,0.9,2.2,2.2,2.2c0.3,0,0.5,0,0.8-0.1
	c0.3-0.1,0.5-0.1,0.8-0.3l0.3,0.6C107.1,119.5,107.1,119.5,107,119.6z"/>
<path class="st0" d="M108.9,119.9v-5.8h0.9v5h2.5v0.7L108.9,119.9L108.9,119.9z"/>
<path class="st0" d="M118.5,118.7c-0.3,0.8-1.2,1.3-2.3,1.3c-0.7,0-1.3-0.2-1.7-0.6c-0.4-0.4-0.6-0.9-0.6-1.8v-3.5h0.9v3.5
	c0,0.5,0,0.6,0.1,0.9c0.2,0.5,0.6,0.7,1.3,0.7c0.4,0,0.8-0.1,1.1-0.3c0.4-0.3,0.5-0.6,0.5-1.4v-3.4h0.8v3.5
	C118.7,118,118.7,118.4,118.5,118.7z"/>
<path class="st0" d="M122.7,119.9h-1.8v-5.8h1.6c0.7,0,1.1,0.1,1.5,0.3c0.4,0.2,0.6,0.6,0.6,1.1c0,0.4-0.1,0.7-0.4,0.9
	c-0.2,0.2-0.3,0.2-0.7,0.4c0.8,0.1,1.3,0.7,1.3,1.4C125,119.2,124.1,119.9,122.7,119.9z M122.6,114.8h-0.7v1.7h0.6
	c0.4,0,0.6,0,0.8-0.2c0.3-0.2,0.5-0.4,0.5-0.8C123.8,115,123.4,114.8,122.6,114.8z M123.5,117.3c-0.2-0.1-0.4-0.2-1-0.2h-0.7v2h0.7
	c0.5,0,0.7-0.1,1-0.2c0.3-0.2,0.5-0.5,0.5-0.9C124,117.8,123.8,117.5,123.5,117.3z"/>
</svg>
